HIERARCHY
ROOT Pelvis
{
	OFFSET 0.000000 0.941512 0.000000
	CHANNELS 6 Xposition Yposition Zposition Zrotation Yrotation Xrotation 
	JOINT Pelvis_L_Hip
	{
		OFFSET 0.000000 0.000000 0.000000
		CHANNELS 3 Zrotation Yrotation Xrotation
		JOINT L_Hip
		{
			OFFSET 0.062321 -0.080322 -0.016990
			CHANNELS 3 Zrotation Yrotation Xrotation
			JOINT L_Knee
			{
				OFFSET 0.093051 -0.381305 -0.029784
				CHANNELS 3 Zrotation Yrotation Xrotation
				JOINT L_Ankle
				{
					OFFSET -0.010371 -0.431000 -0.033614
					CHANNELS 3 Zrotation Yrotation Xrotation
					End Site #name: L_Foot
					{
						OFFSET 0.069299 -0.038670 0.119418
					}
				}
			}
		}
	}
	JOINT Pelvis_R_Hip
	{
		OFFSET 0.000000 0.000000 0.000000
		CHANNELS 3 Zrotation Yrotation Xrotation
		JOINT R_Hip
		{
			OFFSET -0.055334 -0.094904 -0.002373
			CHANNELS 3 Zrotation Yrotation Xrotation
			JOINT R_Knee
			{
				OFFSET -0.064207 -0.384370 -0.019592
				CHANNELS 3 Zrotation Yrotation Xrotation
				JOINT R_Ankle
				{
					OFFSET 0.025418 -0.419734 -0.065953
					CHANNELS 3 Zrotation Yrotation Xrotation
					End Site #name: R_Foot
					{
						OFFSET -0.057233 -0.039888 0.132134
					}
				}
			}
		}
	}
	JOINT Pelvis_Spine1
	{
		OFFSET 0.000000 0.000000 0.000000
		CHANNELS 3 Zrotation Yrotation Xrotation
		JOINT Spine1
		{
			OFFSET -0.005562 0.124093 -0.043360
			CHANNELS 3 Zrotation Yrotation Xrotation
			JOINT Spine2
			{
				OFFSET 0.012244 0.139499 0.029894
				CHANNELS 3 Zrotation Yrotation Xrotation
				JOINT Spine3
				{
					OFFSET -0.002556 0.056561 0.009225
					CHANNELS 3 Zrotation Yrotation Xrotation
					JOINT Spine3_Neck
					{
						OFFSET 0.000000 0.000000 0.000000
						CHANNELS 3 Zrotation Yrotation Xrotation
						JOINT Neck
						{
							OFFSET -0.005205 0.217920 -0.024551
							CHANNELS 3 Zrotation Yrotation Xrotation
							End Site #name: Head
							{
								OFFSET 0.002365 0.091850 0.046637
							}
						}
					}
					JOINT Spine3_L_Collar
					{
						OFFSET 0.000000 0.000000 0.000000
						CHANNELS 3 Zrotation Yrotation Xrotation
						JOINT L_Collar
						{
							OFFSET 0.072225 0.116603 -0.009480
							CHANNELS 3 Zrotation Yrotation Xrotation
							JOINT L_Shoulder
							{
								OFFSET 0.115937 -0.058643 -0.021018
								CHANNELS 3 Zrotation Yrotation Xrotation
								JOINT L_Elbow
								{
									OFFSET 0.021994 -0.254722 -0.024492
									CHANNELS 3 Zrotation Yrotation Xrotation
									End Site #name: L_Wrist
									{
										OFFSET 0.048810 -0.240214 0.103329
									}
								}
							}
						}
					}
					JOINT Spine3_R_Collar
					{
						OFFSET 0.000000 0.000000 0.000000
						CHANNELS 3 Zrotation Yrotation Xrotation
						JOINT R_Collar
						{
							OFFSET -0.073372 0.120704 -0.024611
							CHANNELS 3 Zrotation Yrotation Xrotation
							JOINT R_Shoulder
							{
								OFFSET -0.108089 -0.054969 -0.020504
								CHANNELS 3 Zrotation Yrotation Xrotation
								JOINT R_Elbow
								{
									OFFSET -0.033684 -0.260739 0.009889
									CHANNELS 3 Zrotation Yrotation Xrotation
									End Site #name: R_Wrist
									{
										OFFSET -0.067980 -0.232763 0.118463
									}
								}
							}
						}
					}
				}
			}
		}
	}
}
MOTION
Frames: 5
Frame Time: 0.041667
-0.184527 0.956752 0.273096 -0.375804 -18.096009 6.251899 0.000000 0.000000 0.000000 -8.459850 -1.349417 -6.319354 5.905601 -1.002333 7.236400 0.571185 -7.963321 -5.840087 0.000000 0.000000 0.000000 5.353606 0.808239 -5.621615 0.895115 -0.034850 1.345678 -0.913411 -9.510848 4.692614 0.000000 0.000000 0.000000 6.858900 -0.420877 -8.262100 -3.029667 0.938863 6.016604 -0.448693 -2.907979 -4.295095 0.000000 0.000000 0.000000 -2.583321 2.104657 10.254068 0.000000 0.000000 0.000000 17.319725 -5.537800 -2.386760 -24.063122 3.258592 2.146934 7.863618 2.072955 -10.208609 0.000000 0.000000 0.000000 -24.274517 10.905444 -1.010004 24.954856 -1.464240 7.490584 -0.843698 2.207220 -8.915916 
-0.184109 0.956735 0.273615 -0.342788 -17.951890 6.292795 0.000000 0.000000 0.000000 -8.551297 -1.399694 -6.495484 5.963674 -1.023358 7.472260 0.600483 -8.012201 -5.913102 0.000000 0.000000 0.000000 5.347466 0.830943 -5.724050 0.840833 -0.018112 1.486440 -1.007459 -9.686686 4.646210 0.000000 0.000000 0.000000 6.705707 -0.420726 -8.116815 -3.089477 0.935972 5.835934 -0.361789 -2.800674 -4.138067 0.000000 0.000000 0.000000 -2.619648 2.082656 9.863887 0.000000 0.000000 0.000000 17.572870 -4.750134 -1.801178 -24.103511 3.733608 3.714975 9.088647 2.917977 -8.505624 0.000000 0.000000 0.000000 -24.094616 10.163974 -0.441863 25.381276 -1.975461 8.841300 -2.874860 0.663939 -7.854386 
-0.183710 0.956549 0.273726 -0.323772 -17.783323 6.277387 0.000000 0.000000 0.000000 -8.550705 -1.412689 -6.538820 5.920623 -1.020067 7.526643 0.611691 -8.127285 -5.981751 0.000000 0.000000 0.000000 5.365908 0.831599 -5.724238 0.793903 -0.008549 1.532444 -1.093941 -9.828367 4.588415 0.000000 0.000000 0.000000 6.545569 -0.399544 -8.100886 -3.062660 0.950773 6.070544 -0.362346 -2.701814 -4.243435 0.000000 0.000000 0.000000 -2.570155 2.018759 9.626875 0.000000 0.000000 0.000000 17.605517 -3.868658 -1.150989 -24.661920 4.232160 5.090093 9.723621 3.325642 -7.714234 0.000000 0.000000 0.000000 -23.865089 9.493579 0.037642 26.224817 -2.391090 9.888984 -4.181540 -0.451501 -6.563703 
-0.182777 0.956433 0.273221 -0.324083 -17.590112 6.265347 0.000000 0.000000 0.000000 -8.535300 -1.436125 -6.614962 5.858358 -1.012177 7.549322 0.573714 -8.308192 -5.984857 0.000000 0.000000 0.000000 5.309181 0.837470 -5.744241 0.884035 -0.022573 1.526790 -1.186094 -10.019514 4.560319 0.000000 0.000000 0.000000 6.509448 -0.390211 -8.121819 -3.068976 0.982165 6.409093 -0.375836 -2.495600 -4.412041 0.000000 0.000000 0.000000 -2.548008 1.969025 9.409450 0.000000 0.000000 0.000000 17.293096 -2.907665 -0.453012 -25.514206 4.688570 6.101988 9.610040 3.249550 -7.882532 0.000000 0.000000 0.000000 -23.525232 8.881008 0.412464 27.333747 -2.752803 10.731728 -4.914081 -1.186024 -5.311250 
-0.180667 0.956518 0.271496 -0.326215 -17.327129 6.227797 0.000000 0.000000 0.000000 -8.616379 -1.502463 -6.838427 5.903097 -1.027509 7.703225 0.512013 -8.517737 -5.951409 0.000000 0.000000 0.000000 5.185786 0.857288 -5.822160 1.034609 -0.047147 1.497549 -1.279214 -10.324538 4.627691 0.000000 0.000000 0.000000 6.672292 -0.454119 -7.824939 -3.209568 1.000959 6.273364 -0.353699 -2.145277 -4.301810 0.000000 0.000000 0.000000 -2.684500 1.994511 8.978139 0.000000 0.000000 0.000000 16.763784 -1.879423 0.283571 -26.708893 5.016493 6.446356 8.639308 2.696873 -8.408044 0.000000 0.000000 0.000000 -23.066363 8.362743 0.645026 28.464916 -3.064895 11.381046 -5.136225 -1.540633 -4.368509 
